# xmcd CD database file
#
# Track frame offsets:
#	150
#	7672
#	29180
#
# Disc length: 850 seconds
#
# Revision: 0
# Processed by: cddbd v1.5.1PL0 Copyright (c) Steve Scherf et al.
# Submitted via: CDex 1.51
#
DISCID=19035003
DTITLE=MIRAGE - シルエット
DYEAR=1997
DGENRE=Rock
TTITLE0=幻想の告白
TTITLE1=Mystery
TTITLE2=silhouette
EXTD=YEAR: 1997
EXTT0=
EXTT1=
EXTT2=
PLAYORDER=
